<?xml version="1.0" encoding="UTF-8"?>
<!-- Vectorized from the approved Petit mascot artwork. -->
<svg xmlns="http://www.w3.org/2000/svg" viewBox="0 0 512 512" role="img" aria-labelledby="title description">
<title id="title">Petit logo</title>
<desc id="description">A friendly purple dinosaur inside a circular badge</desc>
<defs>
<clipPath id="badge-clip">
<circle cx="256" cy="256" r="255"/>
</clipPath>
</defs>
<g clip-path="url(#badge-clip)">
<path d="M0 0 C11.97 -0.31 23.95 -0.34 35.93 -0.31 C38.18 -0.31 40.43 -0.31 42.68 -0.32 C115 -0.46 190.22 5.6 294.18 63.69 C347.19 119.58 356.58 214.92 358.18 317.44 C358.18 319.69 358.18 321.94 358.18 324.19 C358.33 396.52 352.27 471.73 294.18 575.69 C238.29 628.71 142.95 638.1 40.43 639.7 C38.18 639.69 35.93 639.7 33.68 639.7 C-38.65 639.84 -113.86 633.79 -217.82 575.69 C-270.84 519.8 -280.23 424.46 -281.83 321.94 C-281.82 319.69 -281.83 317.44 -281.83 315.19 C-281.98 242.86 -275.92 167.65 0 0 Z " fill="#FCEED7" transform="translate(217.82452011108398,-63.69249153137207)"/>
<path d="M0 0 C0.77 0.13 1.53 0.26 2.32 0.39 C21.38 3.69 40.22 10.71 57.16 20 C59.05 21.03 60.95 22.02 62.86 23.01 C78.55 31.31 92.81 42.07 105.46 54.49 C107.06 56.06 108.68 57.6 110.3 59.14 C132.94 80.96 149.79 108.75 161 138 C161.25 138.64 161.49 139.28 161.75 139.94 C170.65 163.62 173.14 187.68 173.25 212.75 C173.26 213.54 173.26 214.33 173.27 215.14 C173.32 225.62 172.68 235.64 171 246 C170.94 246.39 170.94 246.39 170.64 248.39 C164.85 285.12 148.07 320.74 124 349 C123.09 350.1 122.18 351.19 121.27 352.29 C111.46 364.01 101.1 374.62 89 384 C88.08 384.73 87.16 385.45 86.21 386.2 C80.51 390.6 74.65 394.61 68.56 398.44 C67.89 398.86 67.21 399.29 66.52 399.73 C65.26 400.5 63.99 401.26 62.71 402 C61.14 402.92 59.63 403.92 58.12 404.93 C57.42 404.95 56.72 404.98 56 405 C54.88 401.67 54.77 398.17 54.5 394.69 C51.16 363.11 35.79 336.66 17.24 311.44 C8.31 299.26 0.07 286.87 -6 273 C-6.39 272.2 -6.78 271.41 -7.18 270.59 C-7.15 270.32 -7.15 270.32 -7 269 C-4.4 268.6 -2.12 268.5 0.5 268.5 C31.15 267.65 61.98 258.31 83.65 235.75 C95.05 222.41 101.14 205.54 100 188 C98.26 176.34 93.5 167.32 84.43 159.75 C80.05 156.59 75.22 153.84 69.97 152.47 C67.77 151.83 65.95 151.21 64 150 C62.94 147.11 62.55 145.28 62.31 142.31 C62.11 140.77 61.9 139.22 61.69 137.68 C61.63 137.28 61.63 137.28 61.37 135.3 C57.77 112.74 44.69 89.51 26.27 76 C23.56 74.23 20.82 72.59 18 71 C17.63 70.78 17.63 70.78 15.79 69.67 C11.7 67.41 7.73 65.88 3.21 64.75 C-12.49 60.76 -12.49 60.76 -16.62 54.69 C-17.18 53.74 -17.74 52.79 -18.32 51.81 C-25.3 40.16 -39.01 34.27 -51.69 31.06 C-67.5 28.17 -83.93 28.66 -98 37 C-98.33 37.99 -98.66 38.98 -99 40 C-97 39.96 -95 39.92 -93 39.86 C-82.13 40.36 -71.44 44.51 -63.17 51.56 C-62.98 51.8 -62.98 51.8 -62 53 C-62.33 53.66 -62.66 54.32 -63 55 C-64.89 54.36 -64.89 54.36 -67.25 53.19 C-76.17 48.8 -86.98 48.59 -96.5 51.25 C-100.5 52.65 -103.75 54.27 -107 57 C-107 57.99 -107 58.98 -107 60 C-104.8 60.52 -104.8 60.52 -101.75 60.81 C-94.41 61.85 -86.39 64.23 -81.28 69.91 C-81.19 70.6 -81.1 71.29 -81 72 C-83.02 73.78 -84.86 75.09 -87.12 76.5 C-109.95 91.83 -124.46 116.71 -130.77 143.23 C-132.42 146.93 -134.14 147.54 -137.81 149.12 C-144.03 151.86 -148.57 154.45 -151.75 160.62 C-152.16 161.4 -152.56 162.18 -152.98 162.98 C-155.98 168.95 -155.83 175.24 -154.39 181.77 C-152.15 188.17 -148.64 192.27 -143 196 C-141.69 196.63 -140.35 197.21 -139 197.75 C-138.5 197.96 -138.5 197.96 -136 199 C-136 199.99 -136 200.98 -136 202 C-137.79 203.21 -137.79 203.21 -140.19 204.38 C-147.32 208.14 -153.13 214.1 -155.62 221.96 C-157.08 229.82 -156.19 237.12 -152 244 C-147.38 249.35 -142.05 253.68 -135 255 C-131.45 255.26 -127.93 255.44 -124.37 255.5 C-123.59 255.66 -122.8 255.83 -122 256 C-122.73 258.89 -123.91 259.94 -126.31 261.69 C-131.1 265.81 -133.62 270.11 -134.45 276.42 C-134.72 285.36 -133.44 291.02 -127.62 297.75 C-122.41 302.22 -118.23 305.21 -111.26 304.96 C-110.36 304.94 -109.46 304.91 -108.53 304.89 C-106.61 304.84 -104.7 304.77 -102.79 304.7 C-101.89 304.68 -101 304.66 -100.07 304.64 C-99.24 304.62 -98.42 304.59 -97.56 304.56 C-97.05 304.71 -96.53 304.85 -96 305 C-97.14 308.48 -99.46 310.46 -102 313 C-104.89 317.72 -104.72 322.64 -104 328 C-101.78 333.75 -98.39 337.02 -93 340 C-91 340.32 -89 340.63 -86.98 340.81 C-83.38 341.14 -80.43 341.77 -77 343 C-74.26 346.75 -73.66 350.47 -73 355 C-72.59 356.65 -72.18 358.29 -71.75 359.94 C-70.52 366.03 -70.52 366.03 -71 369 C-71.99 369 -72.98 369 -74 369 C-74.67 367.67 -75.33 366.33 -76 365 C-77.33 364.33 -78.67 363.66 -80 363 C-81.44 361.81 -82.85 360.6 -84.25 359.38 C-104.25 343.13 -128.99 339.46 -154 341 C-165.55 342.21 -175.79 346.24 -186.21 351.2 C-186.87 351.5 -187.53 351.81 -188.21 352.12 C-190 353 -190 353 -192.62 354.68 C-193.02 354.73 -193.02 354.73 -195 355 C-197.52 353.06 -199.3 350.6 -201.19 348.06 C-201.76 347.33 -202.33 346.59 -202.91 345.84 C-216.09 328.63 -226.86 310.09 -235 290 C-235.26 289.37 -235.53 288.74 -235.8 288.09 C-251.65 249.85 -254.32 205.13 -245 165 C-244.92 164.66 -244.92 164.66 -244.54 162.91 C-238.95 138.02 -228.36 114.07 -214 93 C-213.27 91.93 -212.55 90.85 -211.8 89.75 C-198.18 69.95 -181.39 52.19 -162 38 C-161 37.26 -160 36.51 -158.97 35.75 C-112.71 2.46 -56.05 -9.9 0 0 Z " fill="#EEE6FA" transform="translate(294,45)"/>
<path d="M0 0 C30.81 2.63 61.35 7.18 91.69 13.11 C92.58 13.28 93.47 13.45 94.38 13.63 C96.38 14.03 98.36 14.48 100.34 14.95 C100.34 15.28 100.34 15.61 100.34 15.95 C98.67 16.26 96.99 16.5 95.31 16.71 C94.22 16.86 93.13 17 92.01 17.15 C90.82 17.31 89.63 17.47 88.4 17.64 C38.21 24.76 -8.37 45.23 -45.66 79.95 C-46.99 81.1 -48.32 82.25 -49.66 83.39 C-80.68 110.46 -103.6 147.54 -117.66 185.95 C-117.91 186.61 -118.15 187.27 -118.4 187.95 C-122.33 198.72 -125.24 209.76 -127.66 220.95 C-127.86 221.86 -128.06 222.77 -128.27 223.71 C-131.41 238.62 -132.03 253.26 -132.04 268.45 C-132.04 269.33 -132.04 270.22 -132.04 271.13 C-132.04 287.5 -130.68 303.46 -127.35 319.51 C-127.13 320.58 -126.91 321.64 -126.69 322.74 C-124.81 331.65 -122.55 340.32 -119.66 348.95 C-119.39 349.76 -119.13 350.58 -118.85 351.42 C-107.8 384.87 -89.64 416.08 -65.1 441.44 C-63.13 443.51 -61.23 445.63 -59.32 447.76 C-55.4 452.12 -51.42 456.3 -46.91 460.07 C-45.15 461.54 -43.43 463.05 -41.72 464.58 C-2 500.02 53.87 524.86 107.6 525.15 C108.45 525.16 109.31 525.17 110.2 525.17 C112.95 525.19 115.71 525.2 118.46 525.2 C119.41 525.2 120.35 525.2 121.32 525.2 C134.7 525.19 147.81 524.85 161 522.39 C163.26 521.96 165.53 521.6 167.81 521.25 C211.79 513.78 255.21 490.48 287.34 459.95 C288.69 458.78 290.04 457.61 291.4 456.45 C299.01 449.8 305.84 442.61 312.14 434.71 C313.56 432.93 315 431.17 316.48 429.44 C327.98 415.91 337.16 400.67 345.34 384.95 C345.72 384.22 346.1 383.5 346.5 382.75 C363.94 349.2 372.59 310.83 372.53 273.14 C372.53 272.41 372.53 271.68 372.52 270.94 C372.34 203.56 346.06 140.42 299.34 91.95 C298.81 91.39 298.27 90.84 297.72 90.26 C290.65 82.95 283.38 76.21 275.34 69.95 C274.87 69.57 274.87 69.57 272.5 67.63 C252.58 51.68 229.95 40.32 206.34 30.95 C205.63 30.67 204.92 30.39 204.2 30.1 C185.91 22.95 166.94 19.65 147.53 17.21 C146.34 17.05 145.14 16.9 143.91 16.75 C142.83 16.62 141.76 16.49 140.65 16.35 C139.89 16.22 139.13 16.09 138.34 15.95 C138.34 15.62 138.34 15.29 138.34 14.95 C141.24 14.27 144.13 13.67 147.06 13.11 C148 12.93 148.94 12.74 149.9 12.56 C323.69 -20.63 323.69 -20.63 376.34 14.95 C413.18 45.81 416.89 112.13 420.89 157.09 C423.68 189.63 423.72 222.17 423.33 254.81 C423.19 266.27 423.28 277.7 423.54 289.15 C427.38 463.31 427.38 463.31 376.34 526.95 C322.18 581.6 222.44 589.61 138.51 590.95 C133.21 590.97 127.91 590.96 122.61 590.95 C120.34 590.95 118.07 590.95 115.79 590.96 C42.3 591.1 -35.81 585.5 -133.09 529.55 C-181.48 480.7 -183.54 387.52 -183.3 322.81 C-183.23 310.83 -182.97 298.86 -182.69 286.89 C-182.43 275.42 -182.41 263.97 -182.54 252.5 C-184.53 68.46 -184.53 68.46 -140.53 19.39 C-108.4 -12.3 -41.69 -3.44 0 0 Z " fill="#FDFCFC" transform="translate(135.66056665033102,-14.95005714148283)"/>
<path d="M0 0 C5.62 4.09 9.56 8.1 12.88 14.19 C17.24 20.91 24.59 21.68 31.9 23.58 C43.04 26.52 52.5 32.29 61 40 C61.42 40.37 61.42 40.37 63.52 42.24 C79.63 57.36 90.65 81.03 93 103 C92.81 104.3 92.63 105.6 92.44 106.94 C92.62 107.95 92.81 108.96 93 110 C95.57 111.06 98.13 111.57 100.85 112.14 C108.54 114.23 115.84 119.57 120.81 125.77 C123.15 130.14 122.92 134.23 122 139 C118.46 150.55 108.92 158.54 98.67 164.23 C82.5 172.67 66.15 175.45 48.06 175.44 C47.29 175.44 46.51 175.44 45.71 175.44 C33.19 175.4 21.84 174.36 10 170 C9.19 169.71 8.37 169.41 7.53 169.11 C-0.9 165.99 -9.12 162.42 -17.29 158.69 C-28.92 153.39 -41.58 148.98 -54.5 152.72 C-60.66 155.6 -65.42 160.25 -68.26 166.45 C-70.57 174.43 -70.05 182.77 -66.62 190.31 C-62.58 197.45 -56.82 203.45 -50 208 C-49.14 209.9 -49.14 209.9 -48.46 212.23 C-48.19 213.09 -47.93 213.94 -47.65 214.83 C-47.38 215.75 -47.1 216.67 -46.81 217.62 C-43.73 227.32 -39.88 236.1 -35 245 C-34.65 245.65 -34.3 246.29 -33.95 246.96 C-28.94 256.26 -23.42 265.14 -17.63 273.97 C-13.96 279.57 -10.45 285.26 -7 291 C-6.33 292.09 -5.66 293.19 -4.98 294.32 C2.16 306.33 8.11 319.27 11 333 C11.2 333.94 11.41 334.88 11.62 335.86 C14.43 351.04 16.06 375.07 8 389 C5.29 389.6 5.29 389.6 1.84 389.56 C0.58 389.55 -0.68 389.55 -1.98 389.54 C-3.34 389.51 -4.7 389.47 -6.06 389.44 C-7.45 389.42 -8.83 389.4 -10.21 389.38 C-19.92 389.2 -29.43 388.67 -39 387 C-39.73 386.88 -40.45 386.75 -41.2 386.63 C-82.85 379.34 -120.1 358.4 -151 330 C-151.68 329.38 -152.37 328.77 -153.07 328.13 C-155.13 326.26 -157.16 324.35 -159.19 322.44 C-159.51 322.15 -159.51 322.15 -161.14 320.67 C-162.86 319 -162.86 319 -165 316 C-161.38 309.09 -147.79 305.64 -140.8 303.25 C-116.91 295.86 -90.2 298.62 -68.1 309.86 C-59.57 314.5 -50.86 320.45 -44.56 327.88 C-44.05 328.25 -43.53 328.62 -43 329 C-43.11 322.73 -44.68 316.83 -46.28 310.8 C-47 308 -47 308 -47.38 305.15 C-47.58 304.44 -47.79 303.73 -48 303 C-51.44 302.88 -51.44 302.88 -53.62 303 C-60.54 303 -66.66 300.36 -71.59 295.59 C-75.92 290.71 -76.59 286.09 -76.42 279.75 C-75.44 273.37 -71.41 269.41 -67 265 C-67.24 265.06 -67.24 265.06 -68.43 265.39 C-75.36 267.03 -85.22 267.42 -91.69 264.25 C-93.46 263.13 -93.46 263.13 -95 262 C-95.91 261.38 -96.81 260.76 -97.75 260.12 C-102.53 255.61 -105.58 250.33 -106.41 243.8 C-106.64 235.27 -105.56 229.61 -100 223 C-98.08 221.13 -96.15 219.6 -94 218 C-93.67 217.34 -93.34 216.68 -93 216 C-94.96 215.96 -96.92 216.02 -98.88 216.12 C-108.39 216.24 -114.36 213.29 -121.27 206.87 C-126.76 200.93 -128.37 194.63 -128.28 186.73 C-127.53 179.48 -124.24 173.01 -119 168 C-110.25 162 -110.25 162 -107 162 C-107 161.01 -107 160.02 -107 159 C-107.48 158.89 -107.48 158.89 -109.94 158.31 C-116.23 156.74 -121.07 152.07 -124.46 146.67 C-127.59 139.79 -128.56 131.97 -126.27 124.67 C-125.32 122.64 -124.26 120.85 -123 119 C-122.65 118.48 -122.65 118.48 -120.88 115.88 C-116.93 111.39 -111.02 107.85 -105.3 106.24 C-103 105 -103 105 -101.88 102.09 C-101.76 101.47 -101.76 101.47 -101.12 98.38 C-94.88 71.44 -77.21 46.99 -54 32 C-53.34 32 -52.68 32 -52 32 C-56.2 26.34 -62.44 24.1 -69 22 C-71.75 21.61 -71.75 21.61 -74.19 21.44 C-75.45 21.29 -76.7 21.15 -78 21 C-78.98 19.17 -78.98 19.17 -79 17 C-72.47 10.29 -64.03 8.93 -55.12 8.69 C-48.91 8.77 -43.8 9.9 -38 12 C-35.53 12.77 -35.53 12.77 -34 13 C-42.03 4.44 -54.86 1.41 -66.12 0.62 C-67.4 0.42 -68.68 0.21 -70 0 C-70.02 -1.88 -70.02 -1.88 -69 -4 C-67.03 -5.41 -67.03 -5.41 -64.5 -6.62 C-63.69 -7.03 -62.87 -7.43 -62.03 -7.85 C-41.71 -15.55 -18.04 -11.3 0 0 Z " fill="#7F52BB" transform="translate(265,85)"/>
<path d="M0 0 C0.82 0 1.64 0 2.49 0 C18.19 0.04 33.35 1.49 48.81 4.38 C49.79 4.55 50.77 4.73 51.78 4.91 C88.35 11.72 123.64 28.42 152.81 51.38 C153.3 51.75 153.3 51.75 155.75 53.67 C171.41 66.22 186.63 80.39 198.81 96.38 C199.23 96.91 199.64 97.45 200.06 98 C241.42 151.99 262.11 219.37 253.56 287.31 C250.34 310.46 244.47 334.05 234.81 355.38 C234.43 356.22 234.05 357.07 233.66 357.95 C222.22 383.17 207.94 406.24 188.81 426.38 C187.66 427.7 186.51 429.04 185.38 430.38 C178.39 438.37 170.84 445.61 162.54 452.21 C160.77 453.61 159.03 455.05 157.31 456.51 C143.77 468.02 128.52 477.17 112.81 485.38 C112.18 485.71 111.54 486.05 110.89 486.4 C88.38 498.31 62.92 505.76 37.81 509.38 C36.63 509.56 35.45 509.74 34.24 509.93 C23.19 511.49 12.27 511.73 1.12 511.69 C0.2 511.69 -0.73 511.68 -1.68 511.68 C-14.29 511.65 -26.65 511.38 -39.04 508.81 C-41.22 508.37 -43.4 508 -45.59 507.64 C-83.72 500.97 -121.45 482.94 -151.19 458.38 C-151.7 457.96 -152.22 457.54 -152.75 457.1 C-163.9 447.99 -175.34 438.44 -184.54 427.32 C-185.77 425.87 -187.05 424.46 -188.36 423.08 C-210.41 399.84 -226.28 370.3 -237.19 340.38 C-237.46 339.64 -237.74 338.9 -238.02 338.13 C-242.69 325.49 -245.61 312.58 -248.19 299.38 C-248.42 298.16 -248.66 296.95 -248.91 295.7 C-254.03 267.24 -253.51 234.55 -247.19 206.38 C-246.97 205.39 -246.75 204.41 -246.52 203.39 C-236.59 160.23 -216.38 119.32 -186.26 86.63 C-184.4 84.6 -182.6 82.53 -180.81 80.44 C-173.81 72.43 -166.25 65.17 -157.92 58.55 C-156.12 57.12 -154.34 55.66 -152.58 54.17 C-139.9 43.46 -125.87 35.05 -111.19 27.38 C-110.39 26.96 -109.6 26.54 -108.77 26.11 C-75.32 8.78 -37.64 -0.09 0 0 Z M-103.19 48.38 C-103.51 48.55 -103.51 48.55 -105.15 49.41 C-121.18 57.88 -135.65 68.34 -149.19 80.38 C-149.69 80.81 -150.18 81.25 -150.7 81.7 C-175.84 103.76 -195.22 131.02 -209.19 161.38 C-209.52 162.08 -209.85 162.79 -210.19 163.52 C-219.38 183.53 -225.03 204.61 -228.19 226.38 C-228.36 227.6 -228.54 228.82 -228.72 230.07 C-229.29 234.71 -229.33 239.29 -229.32 243.96 C-229.32 244.85 -229.32 245.75 -229.32 246.67 C-229.32 248.55 -229.32 250.44 -229.32 252.32 C-229.31 255.17 -229.32 258.02 -229.32 260.87 C-229.36 322.37 -202.08 380.35 -159.12 423.69 C-153.78 428.98 -148.12 433.75 -142.19 438.38 C-140.93 439.38 -139.68 440.39 -138.42 441.4 C-116.56 458.76 -91.18 472.95 -64.29 480.76 C-62.18 481.38 -60.09 482.04 -58 482.7 C-26.71 492.35 9.59 493.9 41.69 487.25 C42.75 487.03 43.82 486.81 44.91 486.59 C99.08 475.08 148.99 445.78 182.81 401.38 C183.29 400.76 183.76 400.15 184.25 399.52 C221.72 350.66 239.52 287.79 231.68 226.54 C223.83 173.49 199.37 128.01 162.81 89.38 C162.17 88.69 161.54 88.01 160.88 87.31 C155.93 82.19 150.39 77.8 144.81 73.38 C143.85 72.59 142.88 71.81 141.88 71 C132.68 63.69 122.89 57.41 112.81 51.38 C112.17 50.99 111.53 50.61 110.87 50.21 C92.33 39.3 71.5 32.84 50.81 27.38 C50.47 27.28 50.47 27.28 48.74 26.82 C-1.32 13.75 -58.29 24.23 -103.19 48.38 Z " fill="#562B89" transform="translate(254.1875,-0.375)"/>
<path d="M0 0 C4.79 2.84 6.43 10.82 7.75 15.88 C9.19 33.87 4.6 50.73 -7.04 64.79 C-7.69 65.52 -8.33 66.25 -9 67 C-9.72 67.81 -10.44 68.62 -11.18 69.46 C-26.46 85.73 -47.44 93.93 -69 98 C-70.11 98.21 -71.21 98.43 -72.35 98.64 C-77.21 99.48 -81.82 100.05 -86.76 99.92 C-91.03 99.85 -94.87 99.79 -99 101 C-99.5 104.95 -97.2 107.95 -95.14 111.2 C-94.03 112.95 -93.02 114.72 -92.02 116.54 C-86.83 125.75 -80.67 134.3 -74.51 142.89 C-57.93 166.06 -41.68 191.11 -38 220 C-37.9 220.67 -37.8 221.34 -37.7 222.03 C-36.31 232.25 -36.31 232.25 -38 237 C-41.64 240.95 -46.97 242.56 -52 244 C-52.66 244 -53.32 244 -54 244 C-54.26 242.07 -54.26 242.07 -54.27 239.35 C-54.29 238.35 -54.31 237.36 -54.33 236.33 C-54.34 235.25 -54.36 234.17 -54.38 233.06 C-54.85 216.81 -58.18 202.79 -65 188 C-65.14 187.68 -65.14 187.68 -65.88 186.06 C-72.32 172.16 -81.01 159.56 -89.54 146.89 C-90.51 145.44 -91.47 144 -92.44 142.55 C-92.92 141.85 -93.39 141.14 -93.88 140.42 C-96.27 136.83 -98.44 133.25 -100.38 129.4 C-105.79 118.67 -105.79 118.67 -109.32 116.72 C-111.88 116.33 -113.99 116.43 -116.56 116.75 C-118.33 116.81 -120.1 116.86 -121.86 116.89 C-122.3 116.91 -122.3 116.91 -124.49 116.99 C-136.75 117.02 -148.66 111.05 -159 105 C-159.31 104.83 -159.31 104.83 -160.9 104 C-167.54 100.04 -168.34 93.93 -170.15 86.84 C-172.19 79.72 -175.15 76.41 -181 72 C-188.54 64.65 -192.17 58.08 -192.5 47.44 C-192.27 39.57 -190.7 35.12 -185.62 29.25 C-179.7 24.17 -175.36 21.85 -167.56 21.75 C-166.43 21.72 -165.3 21.7 -164.13 21.67 C-154.03 22.12 -144.9 26.11 -135.88 30.31 C-128.43 33.68 -121.01 36.93 -113.25 39.5 C-112.6 39.72 -111.95 39.94 -111.27 40.16 C-109.19 40.82 -107.1 41.42 -105 42 C-104.08 42.27 -103.16 42.53 -102.21 42.81 C-93.66 45.06 -85.56 45.46 -76.78 45.39 C-74.5 45.38 -72.23 45.39 -69.95 45.41 C-60.91 45.42 -52.74 44.53 -44 42 C-43.26 41.8 -42.53 41.59 -41.77 41.38 C-26.28 36.91 -12.02 29.55 -3.11 15.56 C-1.26 11.28 -0.9 6.85 -0.52 2.23 C-0.35 1.5 -0.18 0.76 0 0 Z " fill="#FCE7C1" transform="translate(387,214)"/>
<path d="M0 0 C4.66 -1.79 8.33 -1.72 13 0 C16.27 4.31 18.15 8.93 20.15 13.94 C24.49 24.44 31.88 33.66 38.46 42.84 C55.04 66.04 71.32 91.08 75 120 C75.1 120.67 75.2 121.34 75.3 122.03 C76.69 132.25 76.69 132.25 75 137 C71.36 140.95 66.03 142.56 61 144 C60.34 144 59.68 144 59 144 C58.74 142.07 58.74 142.07 58.73 139.35 C58.71 138.35 58.69 137.36 58.67 136.33 C58.66 135.25 58.64 134.17 58.62 133.06 C58.15 116.81 54.82 102.79 48 88 C47.71 87.36 47.42 86.72 47.12 86.06 C40.68 72.16 31.99 59.56 23.46 46.89 C14.99 34.26 6.53 21.23 1 7 C0.68 6.27 0.36 5.53 0.02 4.77 C-0.62 2.81 -0.62 2.81 0 0 Z " fill="#7F52BA" transform="translate(274,314)"/>
<path d="M0 0 C0.99 2.51 0.99 2.51 1.68 6.04 C1.81 6.67 1.94 7.31 2.07 7.96 C2.35 9.32 2.63 10.69 2.89 12.05 C3.59 15.61 4.35 19.16 5.11 22.71 C5.27 23.41 5.42 24.12 5.57 24.85 C7.17 32.09 9.44 39.05 11.95 46.02 C12.67 48 13.34 50 14 52 C12.25 53.75 9.88 53.26 7.5 53.31 C-1.6 53.2 -7.67 50 -14.27 43.87 C-19.76 37.93 -21.37 31.63 -21.28 23.73 C-20.53 16.4 -17.21 10.1 -12 5 C-7.88 1.9 -5.27 0 0 0 Z " fill="#351A62" transform="translate(158,248)"/>
<path d="M0 0 C2.44 1.04 4.68 2.17 7 3.44 C24.41 12.48 41.94 17.28 61.56 18.74 C62.03 18.83 62.51 18.91 63 19 C62.42 19.13 61.83 19.25 61.23 19.39 C60.86 19.49 60.86 19.49 59 20 C59.41 22.29 59.41 22.29 60.62 25.19 C61.01 26.13 61.39 27.07 61.79 28.04 C63 31 63 31 64.7 34.32 C64.8 35.21 64.9 36.09 65 37 C61.79 37.65 59.36 37.75 56.12 37.62 C55.21 37.6 54.29 37.58 53.34 37.56 C38.46 36.97 25.79 32.54 13 25 C12.69 24.82 12.69 24.82 11.1 23.94 C5.89 20.7 4.3 17.13 2.56 11.38 C2.31 10.61 2.05 9.85 1.79 9.06 C0.78 5.95 0 3.29 0 0 Z " fill="#E8CDA2" transform="translate(215,294)"/>
<path d="M0 0 C3 1 3 1 4.62 4.04 C5.23 5.42 5.84 6.8 6.44 8.19 C11.01 18.36 16.38 28.06 21.8 37.8 C22.19 38.52 22.59 39.25 23 40 C23.19 40.35 23.19 40.35 24.16 42.1 C25 44 25 44 25 47 C19.66 49.67 10.03 48.86 4.34 47.25 C2.41 46.3 0.73 45.28 -1 44 C-1.91 43.38 -2.81 42.76 -3.75 42.12 C-8.53 37.61 -11.58 32.33 -12.41 25.8 C-12.66 16.23 -10.9 10.29 -4.37 3.24 C-2.81 1.81 -2.81 1.81 0 0 Z " fill="#361B63" transform="translate(171,303)"/>
<path d="M0 0 C5.79 3.27 11.14 9.03 13.43 15.33 C15.17 23.84 14.77 31.88 10.36 39.44 C6.84 44.31 2.83 47.21 -3.12 48.5 C-6.2 48.73 -9.03 48.7 -12.12 48.5 C-9.12 46.5 -9.12 46.5 -6.19 45.25 C-1.7 42.69 0.26 39.34 1.88 34.5 C2.48 28.53 1.76 25.13 -1.71 20.2 C-4.24 17.16 -6.31 15.8 -10.23 15.16 C-14.31 14.88 -17.25 15.11 -20.56 17.62 C-25.28 22.92 -25.45 27.72 -25.12 34.5 C-24.9 35.55 -24.67 36.6 -24.44 37.69 C-24.39 37.99 -24.39 37.99 -24.12 39.5 C-28.26 36.16 -29.22 31.55 -30.12 26.5 C-30.49 18.59 -29.17 11.74 -24.12 5.5 C-17.13 -0.96 -9.18 -4.06 0 0 Z " fill="#F7F6F9" transform="translate(261.125,183.5)"/>
<path d="M0 0 C-0.06 2.54 -0.43 4.54 -1 7 C-2.44 13.75 -3.15 20.31 -3.17 27.21 C-3.17 27.91 -3.18 28.61 -3.18 29.34 C-3.19 32.25 -3.2 35.15 -3.15 38.06 C-3.13 40.22 -3.14 42.37 -3.17 44.52 C-3.16 45.79 -3.15 47.06 -3.15 48.37 C-3.43 49.24 -3.71 50.1 -4 51 C-10.4 51 -13.54 48.62 -17.98 44.36 C-23.41 38.02 -24.69 31.03 -24.39 22.83 C-23.81 18.59 -22.39 15.51 -20 12 C-19.3 10.97 -18.6 9.94 -17.88 8.88 C-13.57 4.01 -6.74 -1.04 0 0 Z " fill="#361C63" transform="translate(162,192)"/>
<path d="M0 0 C4.86 2.05 7.32 5.57 10.25 9.81 C12.01 14.94 11.53 19.43 9.31 24.25 C7.31 27.75 5.68 30.12 2 32 C-1.78 32.6 -5.23 32.66 -9 32 C-12 29.75 -12 29.75 -14 27 C-14.58 26.3 -15.16 25.6 -15.75 24.88 C-18.42 20.86 -18.46 16.66 -18 12 C-15.16 2.69 -9.57 -1.61 0 0 Z " fill="#32244B" transform="translate(253,198)"/>
<path d="M0 0 C1.36 2.03 1.36 2.03 2.9 4.86 C3.46 5.9 4.02 6.93 4.6 7.99 C5.19 9.09 5.77 10.18 6.38 11.31 C6.66 11.84 6.66 11.84 8.12 14.5 C10.9 19.65 13.5 24.83 15.74 30.23 C16.11 31.13 16.49 32.03 16.87 32.95 C16.91 33.63 16.96 34.3 17 35 C11.59 36.82 5.69 35.67 0.56 33.38 C-4.36 30.49 -7.8 26.27 -10 21 C-11 14.24 -10.28 9.19 -6.39 3.56 C-4.49 1.42 -2.94 0 0 0 Z " fill="#371C64" transform="translate(199,352)"/>
<path d="M0 0 C5.24 2.84 8.89 7.04 10.6 12.76 C11.62 18.48 11.72 23.84 9.88 29.38 C6.91 33.53 4.4 36.37 -0.57 37.67 C-3.19 38.06 -3.19 38.06 -7 38 C-5.25 36.38 -5.25 36.38 -3.63 35.23 C-1.23 33.42 -0.19 31.75 1 29 C1.72 22.6 0.76 19.22 -3 14 C-6.14 11.59 -9.13 11.53 -13 12 C-16.08 14.01 -17.83 15.75 -19.88 18.81 C-20.25 19.2 -20.62 19.6 -21 20 C-20.87 12.21 -18.98 7.52 -13.94 1.56 C-9.32 -0.89 -5.1 -1.05 0 0 Z " fill="#F8F7FA" transform="translate(339,166)"/>
<path d="M0 0 C0.33 0.66 0.66 1.32 1 2 C0.66 2.07 0.66 2.07 -1.05 2.44 C-1.7 2.63 -2.34 2.81 -3 3 C6.38 17.7 27.78 27.27 44.08 31.27 C49.35 32.25 54.64 32.85 59.98 33.23 C62.1 33.41 62.1 33.41 65 34 C64.27 35.5 64.27 35.5 62 37 C47.18 41.17 31.36 35.42 18.4 28.29 C9.14 22.93 0.68 16.42 -6.22 8.2 C-6.51 8 -6.51 8 -8 7 C-10.59 7.73 -10.59 7.73 -13 9 C-13.33 9.17 -13.33 9.17 -15 10 C-15 6.29 -13.94 4.93 -11.44 2.19 C-7.67 -0.72 -4.63 -0.55 0 0 Z " fill="#3C2261" transform="translate(248,261)"/>
<path d="M0 0 C4.85 2.47 7.22 4.85 9 10 C9.73 14.53 9.38 17.29 7.19 21.38 C4.47 24.64 2.93 25.88 -1.31 26.44 C-6.23 25.85 -7.57 24.51 -11 21 C-13.71 16.56 -13.8 12.06 -13 7 C-9.95 1.34 -6.31 -0.61 0 0 Z " fill="#3C2E55" transform="translate(332,177)"/>
<path d="M0 0 C4.09 1.78 7.96 3.91 10 8 C10.46 13.37 10.46 13.37 8.69 15.81 C3.27 19.62 -4.69 18.6 -11 18 C-15.62 16.26 -18.28 14.09 -21 10 C-20.92 6.24 -20.55 4.56 -17.89 1.85 C-12.45 -1.63 -6.21 -0.88 0 0 Z " fill="#613D9A" transform="translate(179,395)"/>
<path d="M0 0 C1.01 -0.02 2.02 -0.03 3.06 -0.05 C6.45 0.37 8.32 1.22 11 3.31 C11.69 6.69 11.69 6.69 11 10.31 C6.21 15.73 -0.58 18.68 -7.69 19.7 C-11.83 19.88 -14.43 19.59 -18.19 17.75 C-20 15.31 -20 15.31 -20.31 11.94 C-18.24 6.21 -13.96 3.73 -8.61 1.16 C-5.62 0.19 -3.14 0.01 0 0 Z " fill="#613D9A" transform="translate(140,390.6875)"/>
<path d="M0 0 C2.38 1.81 2.38 1.81 3.56 4.25 C3.38 6.81 3.38 6.81 1.25 9 C-4.94 12.9 -10.4 13.67 -17.62 12.81 C-20.47 11.83 -21.46 11.04 -23.62 8.81 C-23.81 6.31 -23.81 6.31 -22.62 3.81 C-16.22 -2.25 -8.19 -2.68 0 0 Z " fill="#613C9B" transform="translate(280.625,111.1875)"/>
<path d="M0 0 C4.6 -1.54 8.4 -1.52 13 0 C16.24 4.19 19 9.58 19 15 C15.88 16.12 15.88 16.12 12 17 C10.97 17.25 9.94 17.5 8.88 17.75 C6 17 6 17 4.55 15.01 C3.16 12.39 2.05 9.77 1 7 C0.67 6.27 0.35 5.53 0.01 4.78 C-0.62 2.88 -0.62 2.88 0 0 Z " fill="#6B45A4" transform="translate(274,314)"/>
<path d="M0 0 C5.53 2.06 5.53 2.06 7 5 C4.89 5.2 4.89 5.2 1.81 5.25 C-6.5 5.83 -13.58 8.52 -19.5 14.54 C-20.9 16.2 -22.27 17.89 -23.57 19.63 C-24.04 20.08 -24.52 20.54 -25 21 C-26.43 18.13 -25.92 16.76 -24.94 13.69 C-19.7 2.58 -12.02 -1.23 0 0 Z " fill="#2E1658" transform="translate(249,154)"/>
<path d="M0 0 C4.3 0.44 5.82 1.17 8.69 4.38 C9.62 7.56 9.62 7.56 9.69 10.38 C6.82 11.81 4.87 11.68 1.69 11.38 C-1.88 9.56 -3.87 8.54 -5.31 4.75 C-5.31 0.75 -3.75 0.43 0 0 Z " fill="#210E43" transform="translate(333.3125,228.625)"/>
<path d="M0 0 C4.27 2.31 7.35 4.91 10 9 C9.67 9.16 9.67 9.16 8 10 C7.43 9.7 6.86 9.39 6.28 9.08 C3.27 7.66 0.88 7.73 -2.44 7.75 C-2.99 7.75 -2.99 7.75 -5.81 7.73 C-9 8 -9 8 -11.93 9.18 C-12.61 9.45 -13.3 9.72 -14 10 C-13.52 6 -12.28 4.24 -9.25 1.62 C-5.66 -0.17 -3.95 -0.66 0 0 Z " fill="#31195A" transform="translate(330,140)"/>
<path d="M0 0 C2.38 1.19 2.38 1.19 4 3 C4.5 5.56 4.5 5.56 4 8 C0.96 10.45 -2.23 10.39 -6 10 C-8.44 8.81 -8.44 8.81 -10 7 C-9.94 4.44 -9.94 4.44 -9 2 C-5.51 -0.33 -4.1 -0.42 0 0 Z " fill="#623E9B" transform="translate(160,415)"/>
<path d="M0 0 C2.39 0.38 2.39 0.38 4.19 1 C4.19 1.66 4.19 2.32 4.19 3 C3.55 3.25 2.91 3.5 2.25 3.75 C1.57 4.16 0.89 4.57 0.19 5 C-0.16 7 -0.5 9 -0.81 11 C-1.8 10.67 -2.79 10.34 -3.81 10 C-4.16 11.33 -4.49 12.66 -4.81 14 C-7.81 14 -7.81 14 -9.81 13 C-10.38 8.89 -10.21 5.93 -7.88 2.5 C-4.53 -0.23 -4.05 -0.36 0 0 Z " fill="#1B0D37" transform="translate(328.8125,178)"/>
<path d="M0 0 C0.66 0 1.32 0 2 0 C3.17 7.62 0.3 13.77 -4 20 C-6.75 22.52 -9.53 24.59 -13 26 C-13.66 25.67 -14.32 25.34 -15 25 C-13.91 23.64 -13.91 23.64 -12.06 21.81 C-6.46 15.71 -2.61 7.84 0 0 Z " fill="#643F9F" transform="translate(221,415)"/>
</g>
</svg>
