<?xml version="1.0" encoding="UTF-8"?>
<!-- Mascot extracted from the approved Petit logo artwork. -->
<svg xmlns="http://www.w3.org/2000/svg" viewBox="80 65 370 420" role="img" aria-labelledby="title description">
<title id="title">Petit dinosaur mascot</title>
<desc id="description">A friendly purple long-neck dinosaur</desc>
<path d="M0 0 C5.62 4.09 9.56 8.1 12.88 14.19 C17.24 20.91 24.59 21.68 31.9 23.58 C43.04 26.52 52.5 32.29 61 40 C61.42 40.37 61.42 40.37 63.52 42.24 C79.63 57.36 90.65 81.03 93 103 C92.81 104.3 92.63 105.6 92.44 106.94 C92.62 107.95 92.81 108.96 93 110 C95.57 111.06 98.13 111.57 100.85 112.14 C108.54 114.23 115.84 119.57 120.81 125.77 C123.15 130.14 122.92 134.23 122 139 C118.46 150.55 108.92 158.54 98.67 164.23 C82.5 172.67 66.15 175.45 48.06 175.44 C47.29 175.44 46.51 175.44 45.71 175.44 C33.19 175.4 21.84 174.36 10 170 C9.19 169.71 8.37 169.41 7.53 169.11 C-0.9 165.99 -9.12 162.42 -17.29 158.69 C-28.92 153.39 -41.58 148.98 -54.5 152.72 C-60.66 155.6 -65.42 160.25 -68.26 166.45 C-70.57 174.43 -70.05 182.77 -66.62 190.31 C-62.58 197.45 -56.82 203.45 -50 208 C-49.14 209.9 -49.14 209.9 -48.46 212.23 C-48.19 213.09 -47.93 213.94 -47.65 214.83 C-47.38 215.75 -47.1 216.67 -46.81 217.62 C-43.73 227.32 -39.88 236.1 -35 245 C-34.65 245.65 -34.3 246.29 -33.95 246.96 C-28.94 256.26 -23.42 265.14 -17.63 273.97 C-13.96 279.57 -10.45 285.26 -7 291 C-6.33 292.09 -5.66 293.19 -4.98 294.32 C2.16 306.33 8.11 319.27 11 333 C11.2 333.94 11.41 334.88 11.62 335.86 C14.43 351.04 16.06 375.07 8 389 C5.29 389.6 5.29 389.6 1.84 389.56 C0.58 389.55 -0.68 389.55 -1.98 389.54 C-3.34 389.51 -4.7 389.47 -6.06 389.44 C-7.45 389.42 -8.83 389.4 -10.21 389.38 C-19.92 389.2 -29.43 388.67 -39 387 C-39.73 386.88 -40.45 386.75 -41.2 386.63 C-82.85 379.34 -120.1 358.4 -151 330 C-151.68 329.38 -152.37 328.77 -153.07 328.13 C-155.13 326.26 -157.16 324.35 -159.19 322.44 C-159.51 322.15 -159.51 322.15 -161.14 320.67 C-162.86 319 -162.86 319 -165 316 C-161.38 309.09 -147.79 305.64 -140.8 303.25 C-116.91 295.86 -90.2 298.62 -68.1 309.86 C-59.57 314.5 -50.86 320.45 -44.56 327.88 C-44.05 328.25 -43.53 328.62 -43 329 C-43.11 322.73 -44.68 316.83 -46.28 310.8 C-47 308 -47 308 -47.38 305.15 C-47.58 304.44 -47.79 303.73 -48 303 C-51.44 302.88 -51.44 302.88 -53.62 303 C-60.54 303 -66.66 300.36 -71.59 295.59 C-75.92 290.71 -76.59 286.09 -76.42 279.75 C-75.44 273.37 -71.41 269.41 -67 265 C-67.24 265.06 -67.24 265.06 -68.43 265.39 C-75.36 267.03 -85.22 267.42 -91.69 264.25 C-93.46 263.13 -93.46 263.13 -95 262 C-95.91 261.38 -96.81 260.76 -97.75 260.12 C-102.53 255.61 -105.58 250.33 -106.41 243.8 C-106.64 235.27 -105.56 229.61 -100 223 C-98.08 221.13 -96.15 219.6 -94 218 C-93.67 217.34 -93.34 216.68 -93 216 C-94.96 215.96 -96.92 216.02 -98.88 216.12 C-108.39 216.24 -114.36 213.29 -121.27 206.87 C-126.76 200.93 -128.37 194.63 -128.28 186.73 C-127.53 179.48 -124.24 173.01 -119 168 C-110.25 162 -110.25 162 -107 162 C-107 161.01 -107 160.02 -107 159 C-107.48 158.89 -107.48 158.89 -109.94 158.31 C-116.23 156.74 -121.07 152.07 -124.46 146.67 C-127.59 139.79 -128.56 131.97 -126.27 124.67 C-125.32 122.64 -124.26 120.85 -123 119 C-122.65 118.48 -122.65 118.48 -120.88 115.88 C-116.93 111.39 -111.02 107.85 -105.3 106.24 C-103 105 -103 105 -101.88 102.09 C-101.76 101.47 -101.76 101.47 -101.12 98.38 C-94.88 71.44 -77.21 46.99 -54 32 C-53.34 32 -52.68 32 -52 32 C-56.2 26.34 -62.44 24.1 -69 22 C-71.75 21.61 -71.75 21.61 -74.19 21.44 C-75.45 21.29 -76.7 21.15 -78 21 C-78.98 19.17 -78.98 19.17 -79 17 C-72.47 10.29 -64.03 8.93 -55.12 8.69 C-48.91 8.77 -43.8 9.9 -38 12 C-35.53 12.77 -35.53 12.77 -34 13 C-42.03 4.44 -54.86 1.41 -66.12 0.62 C-67.4 0.42 -68.68 0.21 -70 0 C-70.02 -1.88 -70.02 -1.88 -69 -4 C-67.03 -5.41 -67.03 -5.41 -64.5 -6.62 C-63.69 -7.03 -62.87 -7.43 -62.03 -7.85 C-41.71 -15.55 -18.04 -11.3 0 0 Z " fill="#7F52BB" transform="translate(265,85)"/>
<path d="M0 0 C4.79 2.84 6.43 10.82 7.75 15.88 C9.19 33.87 4.6 50.73 -7.04 64.79 C-7.69 65.52 -8.33 66.25 -9 67 C-9.72 67.81 -10.44 68.62 -11.18 69.46 C-26.46 85.73 -47.44 93.93 -69 98 C-70.11 98.21 -71.21 98.43 -72.35 98.64 C-77.21 99.48 -81.82 100.05 -86.76 99.92 C-91.03 99.85 -94.87 99.79 -99 101 C-99.5 104.95 -97.2 107.95 -95.14 111.2 C-94.03 112.95 -93.02 114.72 -92.02 116.54 C-86.83 125.75 -80.67 134.3 -74.51 142.89 C-57.93 166.06 -41.68 191.11 -38 220 C-37.9 220.67 -37.8 221.34 -37.7 222.03 C-36.31 232.25 -36.31 232.25 -38 237 C-41.64 240.95 -46.97 242.56 -52 244 C-52.66 244 -53.32 244 -54 244 C-54.26 242.07 -54.26 242.07 -54.27 239.35 C-54.29 238.35 -54.31 237.36 -54.33 236.33 C-54.34 235.25 -54.36 234.17 -54.38 233.06 C-54.85 216.81 -58.18 202.79 -65 188 C-65.14 187.68 -65.14 187.68 -65.88 186.06 C-72.32 172.16 -81.01 159.56 -89.54 146.89 C-90.51 145.44 -91.47 144 -92.44 142.55 C-92.92 141.85 -93.39 141.14 -93.88 140.42 C-96.27 136.83 -98.44 133.25 -100.38 129.4 C-105.79 118.67 -105.79 118.67 -109.32 116.72 C-111.88 116.33 -113.99 116.43 -116.56 116.75 C-118.33 116.81 -120.1 116.86 -121.86 116.89 C-122.3 116.91 -122.3 116.91 -124.49 116.99 C-136.75 117.02 -148.66 111.05 -159 105 C-159.31 104.83 -159.31 104.83 -160.9 104 C-167.54 100.04 -168.34 93.93 -170.15 86.84 C-172.19 79.72 -175.15 76.41 -181 72 C-188.54 64.65 -192.17 58.08 -192.5 47.44 C-192.27 39.57 -190.7 35.12 -185.62 29.25 C-179.7 24.17 -175.36 21.85 -167.56 21.75 C-166.43 21.72 -165.3 21.7 -164.13 21.67 C-154.03 22.12 -144.9 26.11 -135.88 30.31 C-128.43 33.68 -121.01 36.93 -113.25 39.5 C-112.6 39.72 -111.95 39.94 -111.27 40.16 C-109.19 40.82 -107.1 41.42 -105 42 C-104.08 42.27 -103.16 42.53 -102.21 42.81 C-93.66 45.06 -85.56 45.46 -76.78 45.39 C-74.5 45.38 -72.23 45.39 -69.95 45.41 C-60.91 45.42 -52.74 44.53 -44 42 C-43.26 41.8 -42.53 41.59 -41.77 41.38 C-26.28 36.91 -12.02 29.55 -3.11 15.56 C-1.26 11.28 -0.9 6.85 -0.52 2.23 C-0.35 1.5 -0.18 0.76 0 0 Z " fill="#FCE7C1" transform="translate(387,214)"/>
<path d="M0 0 C4.66 -1.79 8.33 -1.72 13 0 C16.27 4.31 18.15 8.93 20.15 13.94 C24.49 24.44 31.88 33.66 38.46 42.84 C55.04 66.04 71.32 91.08 75 120 C75.1 120.67 75.2 121.34 75.3 122.03 C76.69 132.25 76.69 132.25 75 137 C71.36 140.95 66.03 142.56 61 144 C60.34 144 59.68 144 59 144 C58.74 142.07 58.74 142.07 58.73 139.35 C58.71 138.35 58.69 137.36 58.67 136.33 C58.66 135.25 58.64 134.17 58.62 133.06 C58.15 116.81 54.82 102.79 48 88 C47.71 87.36 47.42 86.72 47.12 86.06 C40.68 72.16 31.99 59.56 23.46 46.89 C14.99 34.26 6.53 21.23 1 7 C0.68 6.27 0.36 5.53 0.02 4.77 C-0.62 2.81 -0.62 2.81 0 0 Z " fill="#7F52BA" transform="translate(274,314)"/>
<path d="M0 0 C0.99 2.51 0.99 2.51 1.68 6.04 C1.81 6.67 1.94 7.31 2.07 7.96 C2.35 9.32 2.63 10.69 2.89 12.05 C3.59 15.61 4.35 19.16 5.11 22.71 C5.27 23.41 5.42 24.12 5.57 24.85 C7.17 32.09 9.44 39.05 11.95 46.02 C12.67 48 13.34 50 14 52 C12.25 53.75 9.88 53.26 7.5 53.31 C-1.6 53.2 -7.67 50 -14.27 43.87 C-19.76 37.93 -21.37 31.63 -21.28 23.73 C-20.53 16.4 -17.21 10.1 -12 5 C-7.88 1.9 -5.27 0 0 0 Z " fill="#351A62" transform="translate(158,248)"/>
<path d="M0 0 C2.44 1.04 4.68 2.17 7 3.44 C24.41 12.48 41.94 17.28 61.56 18.74 C62.03 18.83 62.51 18.91 63 19 C62.42 19.13 61.83 19.25 61.23 19.39 C60.86 19.49 60.86 19.49 59 20 C59.41 22.29 59.41 22.29 60.62 25.19 C61.01 26.13 61.39 27.07 61.79 28.04 C63 31 63 31 64.7 34.32 C64.8 35.21 64.9 36.09 65 37 C61.79 37.65 59.36 37.75 56.12 37.62 C55.21 37.6 54.29 37.58 53.34 37.56 C38.46 36.97 25.79 32.54 13 25 C12.69 24.82 12.69 24.82 11.1 23.94 C5.89 20.7 4.3 17.13 2.56 11.38 C2.31 10.61 2.05 9.85 1.79 9.06 C0.78 5.95 0 3.29 0 0 Z " fill="#E8CDA2" transform="translate(215,294)"/>
<path d="M0 0 C3 1 3 1 4.62 4.04 C5.23 5.42 5.84 6.8 6.44 8.19 C11.01 18.36 16.38 28.06 21.8 37.8 C22.19 38.52 22.59 39.25 23 40 C23.19 40.35 23.19 40.35 24.16 42.1 C25 44 25 44 25 47 C19.66 49.67 10.03 48.86 4.34 47.25 C2.41 46.3 0.73 45.28 -1 44 C-1.91 43.38 -2.81 42.76 -3.75 42.12 C-8.53 37.61 -11.58 32.33 -12.41 25.8 C-12.66 16.23 -10.9 10.29 -4.37 3.24 C-2.81 1.81 -2.81 1.81 0 0 Z " fill="#361B63" transform="translate(171,303)"/>
<path d="M0 0 C5.79 3.27 11.14 9.03 13.43 15.33 C15.17 23.84 14.77 31.88 10.36 39.44 C6.84 44.31 2.83 47.21 -3.12 48.5 C-6.2 48.73 -9.03 48.7 -12.12 48.5 C-9.12 46.5 -9.12 46.5 -6.19 45.25 C-1.7 42.69 0.26 39.34 1.88 34.5 C2.48 28.53 1.76 25.13 -1.71 20.2 C-4.24 17.16 -6.31 15.8 -10.23 15.16 C-14.31 14.88 -17.25 15.11 -20.56 17.62 C-25.28 22.92 -25.45 27.72 -25.12 34.5 C-24.9 35.55 -24.67 36.6 -24.44 37.69 C-24.39 37.99 -24.39 37.99 -24.12 39.5 C-28.26 36.16 -29.22 31.55 -30.12 26.5 C-30.49 18.59 -29.17 11.74 -24.12 5.5 C-17.13 -0.96 -9.18 -4.06 0 0 Z " fill="#F7F6F9" transform="translate(261.125,183.5)"/>
<path d="M0 0 C-0.06 2.54 -0.43 4.54 -1 7 C-2.44 13.75 -3.15 20.31 -3.17 27.21 C-3.17 27.91 -3.18 28.61 -3.18 29.34 C-3.19 32.25 -3.2 35.15 -3.15 38.06 C-3.13 40.22 -3.14 42.37 -3.17 44.52 C-3.16 45.79 -3.15 47.06 -3.15 48.37 C-3.43 49.24 -3.71 50.1 -4 51 C-10.4 51 -13.54 48.62 -17.98 44.36 C-23.41 38.02 -24.69 31.03 -24.39 22.83 C-23.81 18.59 -22.39 15.51 -20 12 C-19.3 10.97 -18.6 9.94 -17.88 8.88 C-13.57 4.01 -6.74 -1.04 0 0 Z " fill="#361C63" transform="translate(162,192)"/>
<path d="M0 0 C4.86 2.05 7.32 5.57 10.25 9.81 C12.01 14.94 11.53 19.43 9.31 24.25 C7.31 27.75 5.68 30.12 2 32 C-1.78 32.6 -5.23 32.66 -9 32 C-12 29.75 -12 29.75 -14 27 C-14.58 26.3 -15.16 25.6 -15.75 24.88 C-18.42 20.86 -18.46 16.66 -18 12 C-15.16 2.69 -9.57 -1.61 0 0 Z " fill="#32244B" transform="translate(253,198)"/>
<path d="M0 0 C1.36 2.03 1.36 2.03 2.9 4.86 C3.46 5.9 4.02 6.93 4.6 7.99 C5.19 9.09 5.77 10.18 6.38 11.31 C6.66 11.84 6.66 11.84 8.12 14.5 C10.9 19.65 13.5 24.83 15.74 30.23 C16.11 31.13 16.49 32.03 16.87 32.95 C16.91 33.63 16.96 34.3 17 35 C11.59 36.82 5.69 35.67 0.56 33.38 C-4.36 30.49 -7.8 26.27 -10 21 C-11 14.24 -10.28 9.19 -6.39 3.56 C-4.49 1.42 -2.94 0 0 0 Z " fill="#371C64" transform="translate(199,352)"/>
<path d="M0 0 C5.24 2.84 8.89 7.04 10.6 12.76 C11.62 18.48 11.72 23.84 9.88 29.38 C6.91 33.53 4.4 36.37 -0.57 37.67 C-3.19 38.06 -3.19 38.06 -7 38 C-5.25 36.38 -5.25 36.38 -3.63 35.23 C-1.23 33.42 -0.19 31.75 1 29 C1.72 22.6 0.76 19.22 -3 14 C-6.14 11.59 -9.13 11.53 -13 12 C-16.08 14.01 -17.83 15.75 -19.88 18.81 C-20.25 19.2 -20.62 19.6 -21 20 C-20.87 12.21 -18.98 7.52 -13.94 1.56 C-9.32 -0.89 -5.1 -1.05 0 0 Z " fill="#F8F7FA" transform="translate(339,166)"/>
<path d="M0 0 C0.33 0.66 0.66 1.32 1 2 C0.66 2.07 0.66 2.07 -1.05 2.44 C-1.7 2.63 -2.34 2.81 -3 3 C6.38 17.7 27.78 27.27 44.08 31.27 C49.35 32.25 54.64 32.85 59.98 33.23 C62.1 33.41 62.1 33.41 65 34 C64.27 35.5 64.27 35.5 62 37 C47.18 41.17 31.36 35.42 18.4 28.29 C9.14 22.93 0.68 16.42 -6.22 8.2 C-6.51 8 -6.51 8 -8 7 C-10.59 7.73 -10.59 7.73 -13 9 C-13.33 9.17 -13.33 9.17 -15 10 C-15 6.29 -13.94 4.93 -11.44 2.19 C-7.67 -0.72 -4.63 -0.55 0 0 Z " fill="#3C2261" transform="translate(248,261)"/>
<path d="M0 0 C4.85 2.47 7.22 4.85 9 10 C9.73 14.53 9.38 17.29 7.19 21.38 C4.47 24.64 2.93 25.88 -1.31 26.44 C-6.23 25.85 -7.57 24.51 -11 21 C-13.71 16.56 -13.8 12.06 -13 7 C-9.95 1.34 -6.31 -0.61 0 0 Z " fill="#3C2E55" transform="translate(332,177)"/>
<path d="M0 0 C4.09 1.78 7.96 3.91 10 8 C10.46 13.37 10.46 13.37 8.69 15.81 C3.27 19.62 -4.69 18.6 -11 18 C-15.62 16.26 -18.28 14.09 -21 10 C-20.92 6.24 -20.55 4.56 -17.89 1.85 C-12.45 -1.63 -6.21 -0.88 0 0 Z " fill="#613D9A" transform="translate(179,395)"/>
<path d="M0 0 C1.01 -0.02 2.02 -0.03 3.06 -0.05 C6.45 0.37 8.32 1.22 11 3.31 C11.69 6.69 11.69 6.69 11 10.31 C6.21 15.73 -0.58 18.68 -7.69 19.7 C-11.83 19.88 -14.43 19.59 -18.19 17.75 C-20 15.31 -20 15.31 -20.31 11.94 C-18.24 6.21 -13.96 3.73 -8.61 1.16 C-5.62 0.19 -3.14 0.01 0 0 Z " fill="#613D9A" transform="translate(140,390.6875)"/>
<path d="M0 0 C2.38 1.81 2.38 1.81 3.56 4.25 C3.38 6.81 3.38 6.81 1.25 9 C-4.94 12.9 -10.4 13.67 -17.62 12.81 C-20.47 11.83 -21.46 11.04 -23.62 8.81 C-23.81 6.31 -23.81 6.31 -22.62 3.81 C-16.22 -2.25 -8.19 -2.68 0 0 Z " fill="#613C9B" transform="translate(280.625,111.1875)"/>
<path d="M0 0 C4.6 -1.54 8.4 -1.52 13 0 C16.24 4.19 19 9.58 19 15 C15.88 16.12 15.88 16.12 12 17 C10.97 17.25 9.94 17.5 8.88 17.75 C6 17 6 17 4.55 15.01 C3.16 12.39 2.05 9.77 1 7 C0.67 6.27 0.35 5.53 0.01 4.78 C-0.62 2.88 -0.62 2.88 0 0 Z " fill="#6B45A4" transform="translate(274,314)"/>
<path d="M0 0 C5.53 2.06 5.53 2.06 7 5 C4.89 5.2 4.89 5.2 1.81 5.25 C-6.5 5.83 -13.58 8.52 -19.5 14.54 C-20.9 16.2 -22.27 17.89 -23.57 19.63 C-24.04 20.08 -24.52 20.54 -25 21 C-26.43 18.13 -25.92 16.76 -24.94 13.69 C-19.7 2.58 -12.02 -1.23 0 0 Z " fill="#2E1658" transform="translate(249,154)"/>
<path d="M0 0 C4.3 0.44 5.82 1.17 8.69 4.38 C9.62 7.56 9.62 7.56 9.69 10.38 C6.82 11.81 4.87 11.68 1.69 11.38 C-1.88 9.56 -3.87 8.54 -5.31 4.75 C-5.31 0.75 -3.75 0.43 0 0 Z " fill="#210E43" transform="translate(333.3125,228.625)"/>
<path d="M0 0 C4.27 2.31 7.35 4.91 10 9 C9.67 9.16 9.67 9.16 8 10 C7.43 9.7 6.86 9.39 6.28 9.08 C3.27 7.66 0.88 7.73 -2.44 7.75 C-2.99 7.75 -2.99 7.75 -5.81 7.73 C-9 8 -9 8 -11.93 9.18 C-12.61 9.45 -13.3 9.72 -14 10 C-13.52 6 -12.28 4.24 -9.25 1.62 C-5.66 -0.17 -3.95 -0.66 0 0 Z " fill="#31195A" transform="translate(330,140)"/>
<path d="M0 0 C2.38 1.19 2.38 1.19 4 3 C4.5 5.56 4.5 5.56 4 8 C0.96 10.45 -2.23 10.39 -6 10 C-8.44 8.81 -8.44 8.81 -10 7 C-9.94 4.44 -9.94 4.44 -9 2 C-5.51 -0.33 -4.1 -0.42 0 0 Z " fill="#623E9B" transform="translate(160,415)"/>
<path d="M0 0 C2.39 0.38 2.39 0.38 4.19 1 C4.19 1.66 4.19 2.32 4.19 3 C3.55 3.25 2.91 3.5 2.25 3.75 C1.57 4.16 0.89 4.57 0.19 5 C-0.16 7 -0.5 9 -0.81 11 C-1.8 10.67 -2.79 10.34 -3.81 10 C-4.16 11.33 -4.49 12.66 -4.81 14 C-7.81 14 -7.81 14 -9.81 13 C-10.38 8.89 -10.21 5.93 -7.88 2.5 C-4.53 -0.23 -4.05 -0.36 0 0 Z " fill="#1B0D37" transform="translate(328.8125,178)"/>
<path d="M0 0 C0.66 0 1.32 0 2 0 C3.17 7.62 0.3 13.77 -4 20 C-6.75 22.52 -9.53 24.59 -13 26 C-13.66 25.67 -14.32 25.34 -15 25 C-13.91 23.64 -13.91 23.64 -12.06 21.81 C-6.46 15.71 -2.61 7.84 0 0 Z " fill="#643F9F" transform="translate(221,415)"/>
</svg>
